<svg width="1499" height="402" viewBox="0 0 1499 402" fill="none" xmlns="http://www.w3.org/2000/svg">
<path fill-rule="evenodd" clip-rule="evenodd" d="M0 201C0 400.912 0.010999 402 1.988 402C3.975 402 53.619 395.529 59.746 394.471L62.991 393.911L63.246 284.706L63.5 175.5L76.883 214.5C87.854 246.474 107.304 301.862 132.804 373.75C136.221 383.384 136.605 384 139.19 384C140.702 384 153.091 382.682 166.72 381.07C180.349 379.459 194.537 377.831 198.25 377.454L205 376.767V268.049C205 208.254 205.299 123.481 205.665 79.665L206.329 0H174.826H143.324L142.663 33.75C142.3 52.313 141.967 103.05 141.923 146.5C141.849 219.016 141.716 225.131 140.3 221C132.354 197.809 118.902 161.042 104.95 124.383C85.047 72.088 76.599 48.757 67.423 20.75L60.624 0H30.312H0V201ZM266.664 44.25C266.3 68.587 266.002 152.129 266.001 229.898L266 371.295L274.25 370.651C278.788 370.297 295.55 368.899 311.5 367.545C341.94 364.96 405.064 360.497 425.5 359.484C432.1 359.156 438.512 358.68 439.75 358.425L442 357.962V326.896V295.829L434.75 296.445C422.013 297.527 336.975 303 332.901 303H328.98L329.24 256.25L329.5 209.5L372.25 209.239L415 208.979V177.716V146.454L372.2 146.842L329.4 147.231L329.813 105.365C330.041 82.339 330.421 63.292 330.659 63.038C330.896 62.784 356.045 62.391 386.545 62.165L442 61.755V30.877V0H354.663H267.326L266.664 44.25ZM482.66 15.75C482.301 24.413 482.005 38.362 482.003 46.75L482 62H515H548V207.604V353.208L569.25 352.587C580.938 352.245 595.112 351.705 600.75 351.387L611 350.808V206.404V62H644H677V31V0H580.157H483.313L482.66 15.75ZM718.247 174.535L718.5 349.069L749.75 349.492L781 349.914V277.957V206H823.5H866V175V144H823.5H781V103V62H837.5H894V31V0H805.997H717.994L718.247 174.535ZM935 176.407V352.813L944.25 353.393C949.337 353.712 965.65 354.439 980.5 355.008C1008.02 356.064 1076.84 359.544 1095.62 360.83L1106 361.541V330.42V299.299L1097.25 298.693C1092.44 298.359 1071.4 297.16 1050.5 296.028C1029.6 294.896 1009.24 293.713 1005.25 293.399L998 292.829V146.415V0H966.5H935V176.407ZM1158.17 181.917C1158.35 281.971 1158.84 364.175 1159.26 364.592C1159.94 365.269 1209.69 369.827 1217.75 369.95L1221 370V185V0H1189.42H1157.83L1158.17 181.917ZM1276 1.33899C1276 2.08999 1277.96 7.38399 1280.35 13.102C1285.61 25.658 1308.64 84.441 1331.93 144.713L1349.01 188.927L1328.07 237.713C1316.56 264.546 1298.56 306.075 1288.09 330C1271.63 367.594 1269.28 373.586 1270.77 374.137C1271.72 374.487 1285.32 376.225 1301 377.998C1316.68 379.772 1330.85 381.428 1332.5 381.678L1335.5 382.134L1350.44 347.317C1358.66 328.168 1369.01 303.834 1373.44 293.241C1381.16 274.795 1381.55 274.099 1382.72 276.741C1384.78 281.382 1414.83 358.45 1421.43 376L1427.63 392.5L1433.57 393.294C1436.83 393.731 1452.48 395.894 1468.33 398.101C1484.19 400.309 1497.73 401.976 1498.41 401.807C1500.04 401.406 1474.45 333.84 1433.88 231.423C1425.14 209.38 1418 190.681 1418 189.87C1418 188.209 1419.27 185.212 1451.26 111.5C1469.28 69.982 1494.82 10.623 1498.7 1.25C1499.11 0.264 1491.92 0 1464.71 0H1430.2L1426.54 8.75C1424.53 13.563 1414.3 37.43 1403.8 61.788L1384.72 106.077L1370.46 68.788C1362.62 48.28 1353.52 24.525 1350.23 16L1344.26 0.5L1310.13 0.237C1281.82 0.0189995 1276 0.206989 1276 1.33899Z" fill="#959595"/>
</svg>
